<svg width="181" height="200" viewBox="0 0 181 200" fill="none" xmlns="http://www.w3.org/2000/svg">
    <path d="M98.4066 152.316H17.6262C12.6715 152.316 8.65273 155.516 8.65273 159.464V159.674C8.65273 163.622 12.6699 166.82 17.6262 166.82H98.4066C103.364 166.82 107.383 163.622 107.383 159.674V159.464C107.383 155.516 103.364 152.316 98.4066 152.316Z" fill="#161616"/>
    <path d="M28.634 110.882C27.2105 110.882 26.0574 112.037 26.0574 113.46C26.0574 114.886 27.2105 116.041 28.634 116.041C30.0602 116.041 31.216 114.886 31.216 113.46C31.2164 112.037 30.0602 110.882 28.634 110.882Z" fill="#161616"/>
    <path d="M47.9777 110.882C46.5527 110.882 45.3965 112.037 45.3965 113.46C45.3965 114.886 46.5527 116.041 47.9777 116.041C49.4008 116.041 50.5555 114.886 50.5555 113.46C50.5555 112.037 49.4008 110.882 47.9777 110.882Z" fill="#161616"/>
    <path d="M38.9508 103.146C37.5262 103.146 36.373 104.298 36.373 105.724C36.373 107.15 37.5262 108.304 38.9508 108.304C40.3742 108.304 41.5285 107.15 41.5285 105.724C41.5285 104.298 40.3742 103.146 38.9508 103.146Z" fill="#161616"/>
    <path d="M53.1344 102.502C53.1344 103.926 54.2891 105.077 55.7125 105.077C57.1371 105.077 58.2918 103.926 58.2918 102.502C58.2918 101.076 57.1371 99.9246 55.7125 99.9246C54.2891 99.925 53.1344 101.076 53.1344 102.502Z" fill="#161616"/>
    <path d="M65.3828 116.684C66.8105 116.684 67.9637 115.53 67.9637 114.104C67.9637 112.68 66.8105 111.526 65.3828 111.526C63.9598 111.526 62.8039 112.68 62.8039 114.104C62.8035 115.53 63.9594 116.684 65.3828 116.684Z" fill="#161616"/>
    <path d="M73.7656 108.275C75.1891 108.275 76.3418 107.118 76.3418 105.692C76.3418 104.268 75.1887 103.114 73.7656 103.114C72.341 103.114 71.1848 104.268 71.1848 105.692C71.1848 107.118 72.341 108.275 73.7656 108.275Z" fill="#161616"/>
    <path d="M86.659 116.684C88.0824 116.684 89.2383 115.53 89.2383 114.104C89.2383 112.68 88.0824 111.526 86.659 111.526C85.2371 111.526 84.0797 112.68 84.0797 114.104C84.0797 115.53 85.2371 116.684 86.659 116.684Z" fill="#161616"/>
    <path d="M108.199 142.654C108.475 142.575 108.793 142.521 109.225 142.521C111.003 142.521 112.445 141.081 112.445 139.3C112.445 137.52 111.003 136.076 109.224 136.076C108.088 136.076 107.012 136.25 106.039 136.572C105.189 136.855 104.421 137.248 103.757 137.691C102.592 138.467 101.727 139.368 101.009 140.18C100.47 140.791 100.008 141.361 99.5844 141.839C98.9555 142.566 98.4164 143.068 97.9352 143.357C97.6914 143.499 97.4609 143.605 97.1879 143.682C96.9164 143.759 96.5945 143.812 96.1664 143.812C95.6688 143.812 95.316 143.744 95.0133 143.643C94.7492 143.558 94.5156 143.44 94.2648 143.275C93.8293 142.991 93.3438 142.525 92.7856 141.89C92.3676 141.417 91.9102 140.853 91.377 140.239C90.5781 139.335 89.5992 138.302 88.216 137.463C87.5281 137.044 86.7426 136.689 85.8789 136.445C85.018 136.202 84.0852 136.075 83.1094 136.075C81.9742 136.075 80.8992 136.246 79.925 136.571C79.0731 136.855 78.3082 137.247 77.6438 137.69C76.4746 138.467 75.6125 139.368 74.8961 140.179C74.3543 140.791 73.8953 141.361 73.4699 141.839C72.8367 142.566 72.3051 143.067 71.8223 143.357C71.5773 143.498 71.3469 143.605 71.0754 143.681C70.8039 143.758 70.4805 143.811 70.052 143.811C69.5531 143.811 69.202 143.743 68.9004 143.643C68.6348 143.554 68.4012 143.437 68.1504 143.274C67.718 142.991 67.2336 142.524 66.6742 141.889C66.2531 141.417 65.7984 140.853 65.2656 140.245C64.4672 139.335 63.4852 138.302 62.1063 137.463C61.4168 137.044 60.6328 136.689 59.768 136.445C58.907 136.202 57.9727 136.072 56.9984 136.075C55.8633 136.072 54.7867 136.246 53.8152 136.571C52.9652 136.852 52.1988 137.245 51.5316 137.69C50.3668 138.467 49.5031 139.364 48.7824 140.179C48.2449 140.791 47.7871 141.361 47.3633 141.839C46.7301 142.566 46.1926 143.067 45.7129 143.357C45.4707 143.498 45.2406 143.605 44.9676 143.681C44.6914 143.758 44.3711 143.811 43.943 143.811C43.4438 143.811 43.0926 143.743 42.7898 143.643C42.527 143.554 42.2922 143.437 42.0445 143.271C41.6086 142.991 41.1258 142.524 40.5648 141.889C40.1438 141.414 39.6891 140.85 39.1563 140.245C38.3574 139.335 37.3758 138.302 35.9938 137.463C35.3086 137.044 34.5219 136.689 33.6609 136.445C32.7973 136.202 31.8645 136.072 30.8883 136.075C29.7531 136.072 28.6797 136.246 27.7039 136.571C26.8535 136.852 26.0902 137.245 25.4242 137.688C24.2563 138.467 23.3957 139.365 22.6738 140.18C22.1348 140.791 21.6758 141.361 21.2551 141.839C20.6215 142.566 20.0859 143.068 19.6043 143.357C19.3606 143.499 19.1301 143.605 18.857 143.682C18.5824 143.759 18.2637 143.809 17.8356 143.812C17.3352 143.809 16.9852 143.744 16.6809 143.643C16.4184 143.555 16.1832 143.437 15.9352 143.271C15.5008 142.988 15.0141 142.527 14.4586 141.89C14.0379 141.414 13.5801 140.85 13.0473 140.242C12.25 139.336 11.2668 138.302 9.88789 137.463C9.20118 137.044 8.41602 136.689 7.55196 136.445C6.69141 136.202 5.75664 136.072 4.7793 136.075C3.00156 136.075 1.55782 137.519 1.55782 139.3C1.55782 141.08 3.00156 142.521 4.7793 142.521C5.28164 142.521 5.63281 142.592 5.93242 142.689C6.19805 142.781 6.43008 142.896 6.68086 143.062C7.11367 143.345 7.59805 143.805 8.15899 144.444C8.57696 144.916 9.03477 145.483 9.56602 146.091C10.3664 146.998 11.3465 148.031 12.7258 148.873C13.4137 149.289 14.2008 149.643 15.0625 149.886C15.9234 150.13 16.8566 150.257 17.8352 150.257C18.9676 150.261 20.0422 150.086 21.0168 149.764C21.8668 149.478 22.6332 149.088 23.2965 148.645C24.4641 147.868 25.3277 146.962 26.048 146.153C26.5855 145.542 27.0461 144.975 27.4684 144.49C28.102 143.767 28.6348 143.265 29.1176 142.975C29.3609 142.834 29.5898 142.728 29.866 142.651C30.1379 142.574 30.4566 142.521 30.8895 142.521C31.3867 142.521 31.7387 142.592 32.041 142.689C32.3035 142.78 32.5383 142.896 32.7879 143.061C33.2238 143.345 33.7078 143.805 34.266 144.443C34.684 144.916 35.1414 145.482 35.6746 146.091C36.475 146.998 37.4551 148.031 38.8355 148.872C39.5238 149.292 40.309 149.643 41.1699 149.885C42.0336 150.13 42.9668 150.257 43.9426 150.257C45.075 150.26 46.1527 150.086 47.1242 149.764C47.9777 149.477 48.7422 149.087 49.4066 148.645C50.5742 147.868 51.4383 146.962 52.1543 146.152C52.6961 145.541 53.1555 144.974 53.5793 144.49C54.2129 143.767 54.7469 143.264 55.2285 142.975C55.4707 142.834 55.7023 142.727 55.9758 142.65C56.2473 142.574 56.568 142.52 57 142.52C57.4977 142.52 57.8492 142.591 58.1484 142.689C58.4141 142.78 58.6492 142.896 58.8988 143.061C59.3313 143.344 59.8168 143.805 60.3762 144.443C60.7957 144.915 61.2535 145.482 61.7848 146.091C62.5848 146.997 63.5652 148.03 64.9457 148.872C65.6336 149.291 66.4191 149.643 67.2813 149.885C68.1453 150.13 69.0766 150.257 70.0539 150.257C71.1863 150.26 72.2625 150.086 73.2344 149.764C74.0875 149.477 74.8523 149.087 75.5184 148.644C76.6848 147.868 77.55 146.961 78.266 146.152C78.8051 145.541 79.2656 144.974 79.6879 144.489C80.3199 143.766 80.8574 143.264 81.3402 142.975C81.5809 142.833 81.8125 142.727 82.0856 142.65C82.3602 142.573 82.6793 142.52 83.1102 142.52C83.6078 142.52 83.9578 142.591 84.2617 142.688C84.5246 142.78 84.7609 142.895 85.0074 143.061C85.4445 143.344 85.927 143.804 86.4883 144.443C86.909 144.915 87.3637 145.485 87.8996 146.09C88.6969 147 89.6785 148.03 91.0574 148.871C91.7453 149.291 92.5309 149.642 93.3945 149.884C94.2566 150.129 95.1914 150.259 96.1672 150.259C97.3012 150.259 98.3789 150.085 99.3473 149.763C100.199 149.48 100.967 149.087 101.631 148.644C102.799 147.867 103.664 146.961 104.38 146.152C104.918 145.541 105.38 144.973 105.801 144.489C106.434 143.766 106.97 143.264 107.451 142.974C107.695 142.834 107.923 142.728 108.199 142.654Z" fill="#161616"/>
    <path d="M180.792 46.9902H152.026L158.063 19.2285L179.199 6.95664L175.161 0L150.954 14.0551L143.793 46.9902H79.2266L82.5973 90.898C74.9629 88.0012 66.341 86.3242 57.2078 86.3242C42.9902 86.3305 30.0141 90.3695 20.0617 96.8035C15.0848 100.025 10.8566 103.852 7.63203 108.136C5.13672 111.452 3.25 115.055 2.13125 118.843H1.90547L1.34297 122.2C1.32656 122.304 1.31367 122.365 1.30625 122.398L1.30313 122.416C1.28867 122.451 1.25742 122.539 1.21172 122.693C1.16563 122.844 1.1125 123.05 1.07734 123.248C1.02149 123.546 0.996095 123.815 0.984376 124.054C0.971095 124.296 0.966408 124.524 0.966408 124.789C0.969533 126.08 1.14492 127.346 1.57344 128.56C1.89219 129.467 2.36016 130.338 2.97461 131.102C3.88984 132.26 5.13125 133.148 6.4543 133.674C7.7832 134.209 9.17852 134.421 10.5855 134.421H103.827C105.079 134.421 106.317 134.253 107.513 133.842C108.406 133.532 109.274 133.08 110.045 132.481C111.208 131.584 112.118 130.349 112.666 129.011C113.219 127.665 113.444 126.239 113.444 124.789C113.442 124.414 113.438 124.115 113.405 123.746C113.38 123.475 113.321 123.129 113.245 122.843C113.186 122.627 113.131 122.479 113.114 122.426L113.11 122.412C113.106 122.394 113.091 122.338 113.069 122.199V122.202C112.229 117.179 110.002 112.417 106.784 108.135C102.845 102.912 97.4266 98.3586 90.9645 94.768L87.9145 55.0352H172.105L162.895 174.974H111.143C110.225 173.952 109.054 173.084 107.712 172.517C106.323 171.924 104.789 171.646 103.206 171.649H11.2305C9.35547 171.644 7.54258 172.039 5.97188 172.875C4.79492 173.495 3.7793 174.348 2.98203 175.317C1.78047 176.773 1.05234 178.441 0.609376 180.133C0.169532 181.83 0.00156369 183.576 1.18679e-06 185.342V186.307C-0.00156131 190.075 1.53984 193.524 4.01133 195.989C6.47539 198.461 9.92422 200.002 13.6922 200H100.722C104.49 200.003 107.937 198.461 110.403 195.989C112.874 193.524 114.416 190.075 114.414 186.307V185.342C114.414 184.562 114.38 183.786 114.308 183.018H170.344L180.792 46.9902ZM89.982 103.554C94.2594 106.32 97.782 109.554 100.354 112.973C102.927 116.395 104.542 119.983 105.134 123.529V123.532C105.204 123.946 105.28 124.3 105.368 124.61C105.379 124.643 105.39 124.675 105.397 124.707C105.397 124.737 105.4 124.755 105.4 124.79C105.4 125.339 105.321 125.688 105.256 125.874C105.204 126.016 105.166 126.066 105.146 126.089C105.114 126.125 105.12 126.136 104.947 126.216C104.779 126.284 104.416 126.379 103.827 126.379H10.5852C10.0594 126.379 9.71563 126.305 9.52813 126.237C9.38477 126.19 9.33008 126.152 9.30352 126.131C9.26953 126.095 9.25625 126.104 9.18086 125.939C9.12188 125.8 9.04649 125.511 9.02149 125.065L9.27813 123.53C9.87031 119.983 11.4855 116.396 14.059 112.973C17.9121 107.841 23.9242 103.144 31.3785 99.7805C38.8301 96.4113 47.6973 94.3652 57.2078 94.368C69.8859 94.3617 81.4281 98.0113 89.982 103.554ZM106.369 186.308C106.367 187.879 105.743 189.267 104.715 190.3C103.68 191.331 102.293 191.954 100.721 191.957H13.6914C12.1176 191.954 10.7328 191.331 9.69922 190.3C8.67031 189.267 8.0457 187.879 8.04414 186.308V185.343C8.04414 184.241 8.14453 183.252 8.32188 182.455C8.45625 181.858 8.63047 181.371 8.81485 181.014C8.95195 180.742 9.09219 180.544 9.22383 180.394C9.42735 180.166 9.59883 180.042 9.87344 179.921C10.148 179.803 10.5602 179.697 11.2301 179.694H103.206C104.006 179.697 104.424 179.842 104.7 179.986C104.908 180.102 105.063 180.222 105.243 180.438C105.503 180.751 105.804 181.309 106.021 182.159C106.243 182.998 106.371 184.102 106.368 185.343L106.369 186.308Z" fill="#161616"/>
    </svg>
    