<svg width="182" height="200" viewBox="0 0 182 200" fill="none" xmlns="http://www.w3.org/2000/svg">
    <path
        d="M99.0109 152.316H18.2305C13.2758 152.316 9.25703 155.516 9.25703 159.464V159.674C9.25703 163.622 13.2742 166.82 18.2305 166.82H99.0109C103.969 166.82 107.988 163.622 107.988 159.674V159.464C107.987 155.516 103.968 152.316 99.0109 152.316Z"
        fill="black" />
    <path
        d="M29.2383 110.882C27.8148 110.882 26.6617 112.037 26.6617 113.46C26.6617 114.886 27.8148 116.041 29.2383 116.041C30.6644 116.041 31.8203 114.886 31.8203 113.46C31.8207 112.037 30.6644 110.882 29.2383 110.882Z"
        fill="black" />
    <path
        d="M48.582 110.882C47.157 110.882 46.0008 112.037 46.0008 113.46C46.0008 114.886 47.157 116.041 48.582 116.041C50.0051 116.041 51.1598 114.886 51.1598 113.46C51.1598 112.037 50.0051 110.882 48.582 110.882Z"
        fill="black" />
    <path
        d="M39.5551 103.146C38.1305 103.146 36.9773 104.298 36.9773 105.724C36.9773 107.15 38.1305 108.304 39.5551 108.304C40.9785 108.304 42.1328 107.15 42.1328 105.724C42.1328 104.298 40.9785 103.146 39.5551 103.146Z"
        fill="black" />
    <path
        d="M53.7387 102.502C53.7387 103.926 54.8934 105.077 56.3168 105.077C57.7414 105.077 58.8961 103.926 58.8961 102.502C58.8961 101.076 57.7414 99.9246 56.3168 99.9246C54.8934 99.925 53.7387 101.076 53.7387 102.502Z"
        fill="black" />
    <path
        d="M65.9871 116.684C67.4148 116.684 68.568 115.53 68.568 114.104C68.568 112.68 67.4148 111.526 65.9871 111.526C64.5641 111.526 63.4082 112.68 63.4082 114.104C63.4078 115.53 64.5637 116.684 65.9871 116.684Z"
        fill="black" />
    <path
        d="M74.3699 108.275C75.7934 108.275 76.9461 107.118 76.9461 105.692C76.9461 104.268 75.793 103.114 74.3699 103.114C72.9453 103.114 71.7891 104.268 71.7891 105.692C71.7891 107.118 72.9453 108.275 74.3699 108.275Z"
        fill="black" />
    <path
        d="M87.2633 116.684C88.6867 116.684 89.8426 115.53 89.8426 114.104C89.8426 112.68 88.6867 111.526 87.2633 111.526C85.8414 111.526 84.684 112.68 84.684 114.104C84.684 115.53 85.8414 116.684 87.2633 116.684Z"
        fill="black" />
    <path
        d="M108.804 142.654C109.08 142.575 109.397 142.521 109.83 142.521C111.607 142.521 113.05 141.081 113.05 139.3C113.05 137.52 111.607 136.076 109.828 136.076C108.693 136.076 107.616 136.25 106.643 136.572C105.793 136.855 105.025 137.248 104.361 137.691C103.196 138.467 102.331 139.368 101.613 140.18C101.074 140.791 100.613 141.361 100.189 141.839C99.5598 142.566 99.0207 143.068 98.5395 143.357C98.2957 143.499 98.0652 143.605 97.7922 143.682C97.5207 143.759 97.1988 143.812 96.7707 143.812C96.2731 143.812 95.9203 143.744 95.6176 143.643C95.3535 143.558 95.1199 143.44 94.8691 143.275C94.4336 142.991 93.9481 142.525 93.3898 141.89C92.9719 141.417 92.5145 140.853 91.9812 140.239C91.1824 139.335 90.2035 138.302 88.8203 137.463C88.1324 137.044 87.3469 136.689 86.4832 136.445C85.6223 136.202 84.6895 136.075 83.7137 136.075C82.5785 136.075 81.5035 136.246 80.5293 136.571C79.6773 136.855 78.9125 137.247 78.248 137.69C77.0789 138.467 76.2168 139.368 75.5004 140.179C74.9586 140.791 74.4996 141.361 74.0742 141.839C73.441 142.566 72.9094 143.067 72.4266 143.357C72.1816 143.498 71.9512 143.605 71.6797 143.681C71.4082 143.758 71.0848 143.811 70.6563 143.811C70.1574 143.811 69.8063 143.743 69.5047 143.643C69.2391 143.554 69.0055 143.437 68.7547 143.274C68.3223 142.991 67.8379 142.524 67.2785 141.889C66.8574 141.417 66.4027 140.853 65.8699 140.245C65.0715 139.335 64.0895 138.302 62.7105 137.463C62.0211 137.044 61.2371 136.689 60.3723 136.445C59.5113 136.202 58.577 136.072 57.6027 136.075C56.4676 136.072 55.391 136.246 54.4195 136.571C53.5695 136.852 52.8031 137.245 52.1359 137.69C50.9711 138.467 50.1074 139.364 49.3867 140.179C48.8492 140.791 48.3914 141.361 47.9676 141.839C47.3344 142.566 46.7969 143.067 46.3172 143.357C46.075 143.498 45.8449 143.605 45.5719 143.681C45.2957 143.758 44.9754 143.811 44.5473 143.811C44.048 143.811 43.6969 143.743 43.3941 143.643C43.1313 143.554 42.8965 143.437 42.6488 143.271C42.2129 142.991 41.7301 142.524 41.1691 141.889C40.748 141.414 40.2934 140.85 39.7605 140.245C38.9617 139.335 37.9801 138.302 36.598 137.463C35.9129 137.044 35.1262 136.689 34.2652 136.445C33.4016 136.202 32.4687 136.072 31.4926 136.075C30.3574 136.072 29.284 136.246 28.3082 136.571C27.4578 136.852 26.6945 137.245 26.0285 137.688C24.8605 138.467 24 139.365 23.2781 140.18C22.7391 140.791 22.2801 141.361 21.8594 141.839C21.2258 142.566 20.6902 143.068 20.2086 143.357C19.9648 143.499 19.7344 143.605 19.4613 143.682C19.1867 143.759 18.868 143.809 18.4398 143.812C17.9395 143.809 17.5895 143.744 17.2852 143.643C17.0227 143.555 16.7875 143.437 16.5395 143.271C16.1051 142.988 15.6184 142.527 15.0629 141.89C14.6422 141.414 14.1844 140.85 13.6516 140.242C12.8543 139.336 11.8711 138.302 10.4922 137.463C9.80547 137.044 9.02031 136.689 8.15625 136.445C7.2957 136.202 6.36094 136.072 5.38359 136.075C3.60586 136.075 2.16211 137.519 2.16211 139.3C2.16211 141.08 3.60586 142.521 5.38359 142.521C5.88594 142.521 6.23711 142.592 6.53672 142.689C6.80234 142.781 7.03437 142.896 7.28516 143.062C7.71797 143.345 8.20234 143.805 8.76328 144.444C9.18125 144.916 9.63906 145.483 10.1703 146.091C10.9707 146.998 11.9508 148.031 13.3301 148.873C14.018 149.289 14.8051 149.643 15.6668 149.886C16.5277 150.13 17.4609 150.257 18.4395 150.257C19.5719 150.261 20.6465 150.086 21.6211 149.764C22.4711 149.478 23.2375 149.088 23.9008 148.645C25.0684 147.868 25.932 146.962 26.6523 146.153C27.1898 145.542 27.6504 144.975 28.0727 144.49C28.7062 143.767 29.2391 143.265 29.7219 142.975C29.9652 142.834 30.1941 142.728 30.4703 142.651C30.7422 142.574 31.0609 142.521 31.4938 142.521C31.991 142.521 32.343 142.592 32.6453 142.689C32.9078 142.78 33.1426 142.896 33.3922 143.061C33.8281 143.345 34.3121 143.805 34.8703 144.443C35.2883 144.916 35.7457 145.482 36.2789 146.091C37.0793 146.998 38.0594 148.031 39.4398 148.872C40.1281 149.292 40.9133 149.643 41.7742 149.885C42.6379 150.13 43.5711 150.257 44.5469 150.257C45.6793 150.26 46.757 150.086 47.7285 149.764C48.582 149.477 49.3465 149.087 50.0109 148.645C51.1785 147.868 52.0426 146.962 52.7586 146.152C53.3004 145.541 53.7598 144.974 54.1836 144.49C54.8172 143.767 55.3512 143.264 55.8328 142.975C56.075 142.834 56.3066 142.727 56.5801 142.65C56.8516 142.574 57.1723 142.52 57.6043 142.52C58.102 142.52 58.4535 142.591 58.7527 142.689C59.0184 142.78 59.2535 142.896 59.5031 143.061C59.9355 143.344 60.4211 143.805 60.9805 144.443C61.4 144.915 61.8578 145.482 62.3891 146.091C63.1891 146.997 64.1695 148.03 65.55 148.872C66.2379 149.291 67.0234 149.643 67.8855 149.885C68.7496 150.13 69.6809 150.257 70.6582 150.257C71.7906 150.26 72.8668 150.086 73.8387 149.764C74.6918 149.477 75.4566 149.087 76.1227 148.644C77.2891 147.868 78.1543 146.961 78.8703 146.152C79.4094 145.541 79.8699 144.974 80.2922 144.489C80.9242 143.766 81.4617 143.264 81.9445 142.975C82.1852 142.833 82.4168 142.727 82.6898 142.65C82.9645 142.573 83.2836 142.52 83.7145 142.52C84.2121 142.52 84.5621 142.591 84.866 142.688C85.1289 142.78 85.3652 142.895 85.6117 143.061C86.0488 143.344 86.5312 143.804 87.0926 144.443C87.5133 144.915 87.968 145.485 88.5039 146.09C89.3012 147 90.2828 148.03 91.6617 148.871C92.3496 149.291 93.1352 149.642 93.9988 149.884C94.8609 150.129 95.7957 150.259 96.7715 150.259C97.9055 150.259 98.9832 150.085 99.9516 149.763C100.804 149.48 101.571 149.087 102.236 148.644C103.404 147.867 104.268 146.961 104.985 146.152C105.522 145.541 105.984 144.973 106.405 144.489C107.038 143.766 107.574 143.264 108.055 142.974C108.299 142.834 108.528 142.728 108.804 142.654Z"
        fill="black" />
    <path
        d="M181.396 46.9902H152.63L158.667 19.2285L179.803 6.95664L175.765 0L151.558 14.0551L144.398 46.9902H79.8309L83.2016 90.898C75.5672 88.0012 66.9453 86.3242 57.8121 86.3242C43.5945 86.3305 30.6184 90.3695 20.666 96.8035C15.6891 100.025 11.4609 103.852 8.23633 108.136C5.74101 111.452 3.85429 115.055 2.73554 118.843H2.50976L1.94726 122.2C1.93086 122.304 1.91797 122.365 1.91054 122.398L1.90742 122.416C1.89297 122.451 1.86172 122.539 1.81601 122.693C1.76992 122.844 1.71679 123.05 1.68164 123.248C1.62578 123.546 1.60039 123.815 1.58867 124.054C1.57539 124.296 1.5707 124.524 1.5707 124.789C1.57383 126.08 1.74922 127.346 2.17773 128.56C2.49648 129.467 2.96445 130.338 3.5789 131.102C4.49414 132.26 5.73555 133.148 7.05859 133.674C8.3875 134.209 9.78281 134.421 11.1898 134.421H104.431C105.683 134.421 106.921 134.253 108.117 133.842C109.011 133.532 109.879 133.08 110.649 132.481C111.812 131.584 112.722 130.349 113.27 129.011C113.823 127.665 114.048 126.239 114.048 124.789C114.046 124.414 114.042 124.115 114.01 123.746C113.985 123.475 113.925 123.129 113.849 122.843C113.79 122.627 113.735 122.479 113.719 122.426L113.714 122.412C113.71 122.394 113.695 122.338 113.673 122.199V122.202C112.833 117.179 110.607 112.417 107.388 108.135C103.449 102.912 98.0309 98.3586 91.5687 94.768L88.5187 55.0352H172.709L163.5 174.974H111.748C110.829 173.952 109.659 173.084 108.316 172.517C106.927 171.924 105.393 171.646 103.811 171.649H11.8348C9.95976 171.644 8.14687 172.039 6.57617 172.875C5.39922 173.495 4.38359 174.348 3.58633 175.317C2.38476 176.773 1.65664 178.441 1.21367 180.133C0.773826 181.83 0.605858 183.576 0.604295 185.342V186.307C0.602733 190.075 2.14414 193.524 4.61562 195.989C7.07969 198.461 10.5285 200.002 14.2965 200H101.327C105.094 200.003 108.541 198.461 111.007 195.989C113.479 193.524 115.02 190.075 115.018 186.307V185.342C115.018 184.562 114.984 183.786 114.912 183.018H170.948L181.396 46.9902ZM90.5863 103.554C94.8637 106.32 98.3863 109.554 100.958 112.973C103.532 116.395 105.146 119.983 105.739 123.529V123.532C105.808 123.946 105.885 124.3 105.972 124.61C105.984 124.643 105.994 124.675 106.002 124.707C106.002 124.737 106.005 124.755 106.005 124.79C106.005 125.339 105.925 125.688 105.86 125.874C105.809 126.016 105.77 126.066 105.751 126.089C105.718 126.125 105.724 126.136 105.552 126.216C105.383 126.284 105.02 126.379 104.431 126.379H11.1895C10.6637 126.379 10.3199 126.305 10.1324 126.237C9.98906 126.19 9.93437 126.152 9.90781 126.131C9.87383 126.095 9.86055 126.104 9.78515 125.939C9.72617 125.8 9.65078 125.511 9.62578 125.065L9.88242 123.53C10.4746 119.983 12.0898 116.396 14.6633 112.973C18.5164 107.841 24.5285 103.144 31.9828 99.7805C39.4344 96.4113 48.3016 94.3652 57.8121 94.368C70.4902 94.3617 82.0324 98.0113 90.5863 103.554ZM106.973 186.308C106.971 187.879 106.347 189.267 105.32 190.3C104.284 191.331 102.897 191.954 101.326 191.957H14.2957C12.7219 191.954 11.3371 191.331 10.3035 190.3C9.27461 189.267 8.65 187.879 8.64844 186.308V185.343C8.64844 184.241 8.74883 183.252 8.92617 182.455C9.06054 181.858 9.23476 181.371 9.41914 181.014C9.55625 180.742 9.69648 180.544 9.82812 180.394C10.0316 180.166 10.2031 180.042 10.4777 179.921C10.7523 179.803 11.1645 179.697 11.8344 179.694H103.81C104.61 179.697 105.028 179.842 105.304 179.986C105.512 180.102 105.668 180.222 105.848 180.438C106.107 180.751 106.409 181.309 106.626 182.159C106.847 182.998 106.976 184.102 106.973 185.343L106.973 186.308Z"
        fill="black" />
</svg>
    