<svg width="196" height="200" viewBox="0 0 196 200" fill="none" xmlns="http://www.w3.org/2000/svg">
    <path d="M144.893 102.293C155.791 106.173 166.886 88.7738 180.459 60.8367C193.191 34.6305 198.287 20.5004 194.915 10.7656C191.55 1.02461 181.377 7.54765 177.602 12.2211C173.83 16.8984 132.941 67.2379 127.835 73.7191L102.4 104.164L81.7305 79.4262C78.6532 75.6191 79.6321 71 80.3743 66.5598C81.6922 58.6582 81.5899 44.4676 72.5176 33.5844C63.4454 22.7078 42.1461 4.03828 40.1114 2.09336C38.077 0.148435 34.9227 -0.958206 32.3508 1.11445C29.7786 3.18125 30.9047 5.64414 32.9329 8.15195L58.9153 40.3406C61.1286 43.0852 60.7708 45.5227 58.6145 47.2699C56.6438 48.8562 53.2848 48.882 51.7239 46.95L24.9297 13.7566C22.7544 11.0566 19.0114 11.2359 16.8235 13.0016C14.6352 14.7676 13.6754 18.3824 15.8508 21.0887L42.6458 54.2816C44.2067 56.2137 43.4708 59.4894 41.5004 61.0762C39.3442 62.8227 36.8809 62.65 34.6669 59.9117L8.68482 27.7238C6.66295 25.2094 4.4942 23.5969 1.92193 25.6699C-0.643692 27.7492 -0.221426 31.0637 1.25045 33.4629C2.72193 35.8621 16.4778 60.6223 25.1915 71.7871C33.9122 82.9453 47.7575 86.048 55.7614 86.4258C60.259 86.6367 64.9809 86.6496 68.052 90.4629L90.1575 118.816L41.9899 176.471C40.2305 178.576 39.3922 181.295 39.661 184.021C39.9297 186.746 41.2766 189.254 43.4102 190.969L44.7153 192.025C46.8458 193.743 49.5778 194.536 52.2969 194.22C55.0192 193.906 57.5047 192.518 59.1844 190.355L102.4 134.52L150.388 196.069C152.071 198.218 154.547 199.613 157.273 199.933C159.991 200.246 162.723 199.453 164.854 197.732L166.159 196.683C168.29 194.962 169.64 192.454 169.909 189.734C170.178 187.002 169.333 184.29 167.58 182.185L114.595 118.761L127.023 102.702C130.097 98.8887 138.834 100.136 144.893 102.293Z" fill="white"/>
    </svg>
    