<svg width="13" height="3" viewBox="0 0 13 3" fill="none" xmlns="http://www.w3.org/2000/svg">
    <path
        d="M12.711 1.182C12.711 1.45517 12.6025 1.71715 12.4093 1.91032C12.2162 2.10348 11.9542 2.212 11.681 2.212H1.319C1.18111 2.21629 1.04375 2.19285 0.915093 2.14304C0.786433 2.09324 0.66909 2.0181 0.570027 1.92207C0.470965 1.82605 0.392203 1.71111 0.338416 1.58406C0.284628 1.45702 0.256912 1.32046 0.256912 1.1825C0.256912 1.04453 0.284628 0.907977 0.338416 0.780932C0.392203 0.653886 0.470965 0.538941 0.570027 0.442918C0.66909 0.346896 0.786433 0.271753 0.915093 0.22195C1.04375 0.172147 1.18111 0.148698 1.319 0.152996H11.683C11.956 0.153261 12.2177 0.261896 12.4107 0.45503C12.6036 0.648164 12.712 0.909996 12.712 1.183L12.711 1.182Z"
        fill="white" />
</svg>
    