<svg width="18" height="20" viewBox="0 0 18 20" fill="none" xmlns="http://www.w3.org/2000/svg">
    <path d="M7 10L11 14M11 10L7 14M15 4L14.1991 16.0129C14.129 17.065 14.0939 17.5911 13.8667 17.99C13.6666 18.3412 13.3648 18.6235 13.0011 18.7998C12.588 19 12.0607 19 11.0062 19H6.99377C5.93927 19 5.41202 19 4.99889 18.7998C4.63517 18.6235 4.33339 18.3412 4.13332 17.99C3.90607 17.5911 3.871 17.065 3.80086 16.0129L3 4M1 4H17M13 4L12.7294 3.18807C12.4671 2.40125 12.3359 2.00784 12.0927 1.71698C11.8779 1.46013 11.6021 1.26132 11.2905 1.13878C10.9376 1 10.523 1 9.6936 1H8.3064C7.477 1 7.0624 1 6.70951 1.13878C6.39792 1.26132 6.12208 1.46013 5.90729 1.71698C5.66405 2.00784 5.53292 2.40125 5.27064 3.18807L5 4" stroke="white" stroke-width="2" stroke-linecap="round" stroke-linejoin="round"/>
    </svg>
    