<svg width="14" height="14" viewBox="0 0 14 14" fill="none" xmlns="http://www.w3.org/2000/svg">
    <path fill-rule="evenodd" clip-rule="evenodd"
        d="M0.469668 0.469668C0.762558 0.176777 1.23744 0.176777 1.53033 0.469668L13.5303 12.4697C13.8232 12.7626 13.8232 13.2374 13.5303 13.5303C13.2374 13.8232 12.7626 13.8232 12.4697 13.5303L0.469668 1.53033C0.176777 1.23744 0.176777 0.762558 0.469668 0.469668Z"
        fill="white" />
    <path fill-rule="evenodd" clip-rule="evenodd"
        d="M13.5303 0.469668C13.8232 0.762558 13.8232 1.23744 13.5303 1.53033L1.53034 13.5303C1.23744 13.8232 0.762566 13.8232 0.469676 13.5303C0.176776 13.2374 0.176776 12.7626 0.469666 12.4697L12.4697 0.469668C12.7626 0.176777 13.2374 0.176777 13.5303 0.469668Z"
        fill="white" />
</svg>
    